<?xml version="1.0" encoding="utf-8"?>
<!-- Generator: Adobe Adobe Illustrator 29.2.0, SVG Export Plug-In . SVG Version: 6.00 Build 0)  -->
<svg version="1.1" xmlns="http://www.w3.org/2000/svg" xmlns:xlink="http://www.w3.org/1999/xlink" x="0px" y="0px"
	 width="2937.54px" height="2971.44px" viewBox="0 0 2937.54 2971.44" style="enable-background:new 0 0 2937.54 2971.44;"
	 xml:space="preserve">
<style type="text/css">
	.st0{fill:#E13A44;}
	.st1{fill:#FFFFFF;}
</style>
<g id="图层_1">
</g>
<g id="图层_2">
	<rect x="-14.22" y="-33.19" class="st0" width="2981.24" height="3036.32"/>
	<g>
		<rect x="526.34" y="1272.22" class="st1" width="425.16" height="58.29"/>
		<path class="st1" d="M719.87,1407.81v134.11c0,11.18,9.06,20.24,20.24,20.24H860.5c11.18,0,20.24-9.06,20.24-20.24v-134.11
			c0-11.18-9.06-20.24-20.24-20.24H740.12C728.94,1387.57,719.87,1396.63,719.87,1407.81z M821.79,1545.58h-42.96
			c-2.48,0-4.5-2.01-4.5-4.5v-132.44c0-2.48,2.01-4.5,4.5-4.5h42.96c2.48,0,4.5,2.01,4.5,4.5v132.44
			C826.29,1543.57,824.27,1545.58,821.79,1545.58z"/>
		<path class="st1" d="M1351.04,1407.81v134.11c0,11.18,9.06,20.24,20.24,20.24h120.39c11.18,0,20.24-9.06,20.24-20.24v-134.11
			c0-11.18-9.06-20.24-20.24-20.24h-120.39C1360.1,1387.57,1351.04,1396.63,1351.04,1407.81z M1452.95,1545.58h-42.96
			c-2.48,0-4.5-2.01-4.5-4.5v-132.44c0-2.48,2.01-4.5,4.5-4.5h42.96c2.48,0,4.5,2.01,4.5,4.5v132.44
			C1457.45,1543.57,1455.44,1545.58,1452.95,1545.58z"/>
		<path class="st1" d="M1629.1,1387.57v174.59h54.46v-56.97h89.88c10.66,0,19.31-8.64,19.31-19.31v-79
			c0-10.66-8.65-19.31-19.31-19.31H1629.1z M1732.19,1488.61h-48.63v-84.46h48.63c3.37,0,6.1,2.73,6.1,6.1v72.27
			C1738.29,1485.88,1735.56,1488.61,1732.19,1488.61z"/>
		<rect x="2233.6" y="1387.57" class="st1" width="52.98" height="174.59"/>
		<path class="st1" d="M2161.58,1499.73h14.85c10.96,0,19.84-8.88,19.84-19.84v-72.48c0-10.96-8.88-19.84-19.84-19.84h-143.8v174.59
			h54.46v-62.43h20.4l36.01,62.43h56.88L2161.58,1499.73z M2087.09,1483.15v-79.01h48.51c3.43,0,6.21,2.78,6.21,6.21v66.58
			c0,3.43-2.78,6.21-6.21,6.21H2087.09z"/>
		<path class="st1" d="M580.8,1461.08v-51.9c0-2.78,2.26-5.04,5.04-5.04h38.57c2.78,0,5.04,2.26,5.04,5.04v33.82h54.46v-36.6
			c0-10.41-8.44-18.84-18.84-18.84H545.18c-10.41,0-18.84,8.44-18.84,18.84v57.45c0,10.41,8.44,18.84,18.84,18.84h80.02
			c2.78,0,5.04,2.26,5.04,5.04v53.07c0,2.78-2.26,5.04-5.04,5.04h-38.9c-2.78,0-5.04-2.26-5.04-5.04v-33.82h-54.46v36.33
			c0,10.41,8.44,18.84,18.84,18.84h120.21c10.41,0,18.84-8.44,18.84-18.84v-58.36c0-10.41-8.44-18.84-18.84-18.84h-80.02
			C583.06,1466.12,580.8,1463.87,580.8,1461.08z"/>
		<polygon class="st1" points="1110.86,1387.57 1088.55,1387.57 1079.26,1387.57 1028.35,1494.02 978.39,1387.57 969.02,1387.57 
			947.07,1387.57 921.06,1387.57 921.06,1562.16 969.02,1562.16 969.02,1434.34 1011.14,1524.08 1013.97,1524.08 1042.46,1524.08 
			1045.58,1524.08 1088.55,1434.22 1088.55,1562.16 1137.13,1562.16 1137.13,1387.57 		"/>
		<polygon class="st1" points="1234.47,1545.21 1234.47,1481.43 1307.74,1481.43 1307.74,1464.49 1234.47,1464.49 1234.47,1404.52 
			1319.37,1404.52 1319.37,1387.57 1234.47,1387.57 1179,1387.57 1179,1404.52 1179,1464.49 1179,1481.43 1179,1545.21 
			1179,1562.16 1234.47,1562.16 1322.95,1562.16 1322.95,1545.21 		"/>
		<path class="st1" d="M1954.32,1562.16h52.76l-66.36-174.59h-22.56h-21.48h-22.56l-66.36,174.59h52.76l11.31-34.27h71.17
			L1954.32,1562.16z M1877.55,1510.6l29.88-90.49l29.88,90.49H1877.55z"/>
		<polygon class="st1" points="2346.09,1473.02 2409.1,1387.57 2350.49,1387.57 2288.97,1473.02 2352.65,1562.16 2411.27,1562.16 		
			"/>
		<g>
			<rect x="526.28" y="1616.08" class="st1" width="21.38" height="67.55"/>
			<polygon class="st1" points="671.83,1672.2 658.94,1631.03 638.73,1631.03 659.52,1683.63 668.25,1683.63 675.4,1683.63 
				684.13,1683.63 704.92,1631.03 684.71,1631.03 			"/>
			<path class="st1" d="M617.7,1631.03h-23.53c-2.95,0-5.35,2.39-5.35,5.35v-5.35h-20.21v52.6h20.21v-43.34
				c0-2.07,1.68-3.75,3.75-3.75h10.15c2.14,0,3.87,1.73,3.87,3.87v43.22h20.21v-43.51C626.79,1635.1,622.72,1631.03,617.7,1631.03z"
				/>
			<path class="st1" d="M1150.68,1631.03h-23.53c-2.95,0-5.35,2.39-5.35,5.35v-5.35h-20.21v52.6h20.21v-43.34
				c0-2.07,1.68-3.75,3.75-3.75h10.15c2.14,0,3.87,1.73,3.87,3.87v43.22h20.21v-43.51
				C1159.78,1635.1,1155.71,1631.03,1150.68,1631.03z"/>
			<path class="st1" d="M1489.6,1631.03h-23.53c-2.95,0-5.35,2.39-5.35,5.35v-5.35h-20.21v52.6h20.21v-43.34
				c0-2.07,1.68-3.75,3.75-3.75h10.15c2.14,0,3.87,1.73,3.87,3.87v43.22h20.21v-43.51C1498.7,1635.1,1494.62,1631.03,1489.6,1631.03
				z"/>
			<path class="st1" d="M1401.57,1636.38c0-2.95-2.4-5.35-5.35-5.35h-23.53c-5.02,0-9.1,4.07-9.1,9.1v10.81v12.8v10.81
				c0,5.02,4.07,9.1,9.1,9.1h23.53c2.95,0,5.35-2.39,5.35-5.35v5.35h20.21v-52.6h-20.21V1636.38z M1397.82,1678.12h-10.15
				c-2.14,0-3.87-1.73-3.87-3.87v-10.52v-12.8v-10.52c0-2.14,1.73-3.87,3.87-3.87h10.15c2.07,0,3.75,1.68,3.75,3.75v34.08
				C1401.57,1676.44,1399.89,1678.12,1397.82,1678.12z"/>
			<path class="st1" d="M998.77,1631.03h-23.53c-2.72,0-4.94,2.03-5.28,4.66c-1.56-2.78-4.52-4.66-7.93-4.66h-23.53
				c-2.95,0-5.35,2.39-5.35,5.35v-5.35h-20.21v52.6h20.21v-43.34c0-2.07,1.68-3.75,3.75-3.75h10.15c2.14,0,3.87,1.73,3.87,3.87
				v43.22h20.21v-43.51c0-0.79-0.11-1.55-0.3-2.28c0.69-0.79,1.69-1.3,2.82-1.3h10.15c2.14,0,3.87,1.73,3.87,3.87v43.22h20.21
				v-43.51C1007.86,1635.1,1003.79,1631.03,998.77,1631.03z"/>
			<path class="st1" d="M1982.04,1631.03h-23.53c-2.95,0-5.35,2.39-5.35,5.35v-5.35h-20.21v52.6h20.21v-43.34
				c0-2.07,1.68-3.75,3.75-3.75h10.15c2.14,0,3.87,1.73,3.87,3.87v43.22h20.21v-43.51
				C1991.13,1635.1,1987.06,1631.03,1982.04,1631.03z"/>
			<path class="st1" d="M1830.11,1631.03h-23.53c-2.72,0-4.94,2.03-5.28,4.66c-1.56-2.78-4.52-4.66-7.93-4.66h-23.53
				c-2.95,0-5.35,2.39-5.35,5.35v-5.35h-20.21v52.6h20.21v-43.34c0-2.07,1.68-3.75,3.75-3.75h10.15c2.14,0,3.87,1.73,3.87,3.87
				v43.22h20.21v-43.51c0-0.79-0.11-1.55-0.3-2.28c0.69-0.79,1.69-1.3,2.82-1.3h10.15c2.14,0,3.87,1.73,3.87,3.87v43.22h20.21
				v-43.51C1839.2,1635.1,1835.13,1631.03,1830.11,1631.03z"/>
			<path class="st1" d="M767.76,1631.03h-42.47c-4.64,0-8.4,3.76-8.4,8.4v35.8c0,4.64,3.76,8.4,8.4,8.4h42.47
				c4.64,0,8.4-3.76,8.4-8.4v-8.29h-19.37v8.1c0,1.65-1.34,2.99-2.99,2.99h-13.73c-1.65,0-2.99-1.34-2.99-2.99v-15.21h39.07v-20.4
				C776.16,1634.79,772.4,1631.03,767.76,1631.03z M756.79,1653.31h-19.7v-13.69c0-1.65,1.34-2.99,2.99-2.99h13.73
				c1.65,0,2.99,1.34,2.99,2.99V1653.31z"/>
			<path class="st1" d="M1075.49,1631.03h-42.47c-4.64,0-8.4,3.76-8.4,8.4v35.8c0,4.64,3.76,8.4,8.4,8.4h42.47
				c4.64,0,8.4-3.76,8.4-8.4v-8.29h-19.37v8.1c0,1.65-1.34,2.99-2.99,2.99h-13.73c-1.65,0-2.99-1.34-2.99-2.99v-15.21h39.07v-20.4
				C1083.89,1634.79,1080.13,1631.03,1075.49,1631.03z M1064.52,1653.31h-19.7v-13.69c0-1.65,1.34-2.99,2.99-2.99h13.73
				c1.65,0,2.99,1.34,2.99,2.99V1653.31z"/>
			<path class="st1" d="M1718.66,1631.03h-42.47c-4.64,0-8.4,3.76-8.4,8.4v35.8c0,4.64,3.76,8.4,8.4,8.4h42.47
				c4.64,0,8.4-3.76,8.4-8.4v-8.29h-19.37v8.1c0,1.65-1.34,2.99-2.99,2.99h-13.73c-1.65,0-2.99-1.34-2.99-2.99v-15.21h39.07v-20.4
				C1727.06,1634.79,1723.3,1631.03,1718.66,1631.03z M1707.69,1653.31h-19.7v-13.69c0-1.65,1.34-2.99,2.99-2.99h13.73
				c1.65,0,2.99,1.34,2.99,2.99V1653.31z"/>
			<path class="st1" d="M1907.1,1631.03h-42.47c-4.64,0-8.4,3.76-8.4,8.4v35.8c0,4.64,3.76,8.4,8.4,8.4h42.47
				c4.64,0,8.4-3.76,8.4-8.4v-8.29h-19.37v8.1c0,1.65-1.34,2.99-2.99,2.99h-13.73c-1.65,0-2.99-1.34-2.99-2.99v-15.21h39.07v-20.4
				C1915.5,1634.79,1911.74,1631.03,1907.1,1631.03z M1896.13,1653.31h-19.7v-13.69c0-1.65,1.34-2.99,2.99-2.99h13.73
				c1.65,0,2.99,1.34,2.99,2.99V1653.31z"/>
			<path class="st1" d="M887.56,1675.67v-38.23h10.26v-6.4h-10.26v-12.15h-20.21v12.15h-8.34v6.4h8.34v37.86
				c0,4.6,3.73,8.34,8.34,8.34h22.71v-6.45h-9.32C888.24,1677.19,887.56,1676.51,887.56,1675.67z"/>
			<path class="st1" d="M1200.76,1675.67v-38.23h10.26v-6.4h-10.26v-12.15h-20.21v12.15h-8.34v6.4h8.34v37.86
				c0,4.6,3.73,8.34,8.34,8.34h22.71v-6.45h-9.32C1201.44,1677.19,1200.76,1676.51,1200.76,1675.67z"/>
			<path class="st1" d="M2034.08,1677.19c-0.84,0-1.52-0.68-1.52-1.52v-38.23h10.26v-6.4h-10.26v-12.15h-20.21v12.15h-8.34v6.4h8.34
				v37.86c0,4.6,3.73,8.34,8.34,8.34h22.71v-6.45H2034.08z"/>
			<path class="st1" d="M839.51,1654.53h-27.55v-15.03c0-1.58,1.28-2.86,2.86-2.86h9.47c1.58,0,2.86,1.28,2.86,2.86v8.19h19.37
				v-8.67c0-4.41-3.57-7.98-7.98-7.98h-38.81c-4.41,0-7.98,3.57-7.98,7.98v13.14c0,4.41,3.57,7.98,7.98,7.98h27.55v15.03
				c0,1.58-1.28,2.86-2.86,2.86h-9.47c-1.58,0-2.86-1.28-2.86-2.86v-8.19h-19.37v8.67c0,4.41,3.57,7.98,7.98,7.98h38.81
				c4.41,0,7.98-3.57,7.98-7.98v-13.14C847.49,1658.1,843.92,1654.53,839.51,1654.53z"/>
			<polygon class="st1" points="1326.02,1616.11 1322.15,1616.11 1302.91,1657.55 1283.67,1616.11 1280.07,1616.11 1271.6,1616.11 
				1261.22,1616.11 1261.22,1683.63 1280.07,1683.63 1280.07,1634.34 1296.21,1669.11 1297.54,1669.11 1308.28,1669.11 
				1309.61,1669.11 1326.02,1633.78 1326.02,1683.63 1344.86,1683.63 1344.86,1616.11 1334.22,1616.11 			"/>
			<path class="st1" d="M1554.11,1636.38c0-2.95-2.4-5.35-5.35-5.35h-23.53c-5.02,0-9.1,4.07-9.1,9.1v10.81v12.8v10.81
				c0,5.02,4.07,9.1,9.1,9.1h23.53c2.95,0,5.35-2.39,5.35-5.35v5.35h20.21v-52.6h-20.21V1636.38z M1550.36,1678.12h-10.15
				c-2.14,0-3.87-1.73-3.87-3.87v-10.52v-12.8v-10.52c0-2.14,1.73-3.87,3.87-3.87h10.15c2.07,0,3.75,1.68,3.75,3.75v34.08
				C1554.11,1676.44,1552.43,1678.12,1550.36,1678.12z"/>
			<path class="st1" d="M1625.08,1683.63c2.95,0,5.35-2.4,5.35-5.35v-3.91c0,2.07-1.68,3.75-3.75,3.75h-10.15
				c-2.14,0-3.87-1.73-3.87-3.87v-10.52v-12.8v-10.52c0-2.14,1.73-3.87,3.87-3.87h10.15c2.07,0,3.75,1.68,3.75,3.75v-3.91
				c0-2.95-2.4-5.35-5.35-5.35h-23.53c-5.02,0-9.1,4.07-9.1,9.1v10.81v12.8v10.81c0,5.02,4.07,9.1,9.1,9.1H1625.08z"/>
			<path class="st1" d="M1630.43,1690.58c0,0.88-0.71,1.59-1.59,1.59h-33.63v7.05h35.22h5.13h3.22c6.55,0,11.85-5.31,11.85-11.85
				v-56.34h-20.21V1690.58z"/>
		</g>
	</g>
</g>
</svg>
